<?xml version="1.0" encoding="utf-8"?>
<!-- Generator: Adobe Illustrator 26.0.1, SVG Export Plug-In . SVG Version: 6.00 Build 0)  -->
<svg version="1.1" id="Layer_1" xmlns="http://www.w3.org/2000/svg" xmlns:xlink="http://www.w3.org/1999/xlink" x="0px" y="0px"
	 viewBox="0 0 266 78" style="enable-background:new 0 0 266 78;" xml:space="preserve">
<style type="text/css">
	.st0{fill:#6E461B;}
</style>
<g>
	<path d="M37.48,49.16c-3.35,3.41-6.78,5.11-10.29,5.11c-1.02,0-2-0.13-2.94-0.39c-0.94-0.26-2.09-0.7-3.44-1.33
		c-1.35-0.62-2.54-1.08-3.58-1.36c-1.91,2.09-3.64,3.14-5.18,3.14c-0.54,0-0.98-0.18-1.34-0.53c-0.35-0.35-0.53-0.79-0.53-1.29
		c0-1.07,0.53-2.02,1.58-2.83c1.05-0.81,2.54-1.38,4.47-1.69c0.81-1.1,1.32-2.18,1.55-3.24c0.23-1.05,0.4-2.79,0.53-5.21
		c0.24-4.98,1.57-8.88,4-11.7s5.06-4.23,7.9-4.23c1.95,0,3.55,0.62,4.81,1.86c1.25,1.24,1.88,2.82,1.88,4.74
		c0,2.22-0.66,4.17-1.97,5.83s-2.83,2.5-4.54,2.5c-0.89,0-1.59-0.24-2.1-0.73s-0.76-1.16-0.76-2c0-0.44,0.08-0.95,0.25-1.53
		c0.38,0.44,0.86,0.66,1.44,0.66c0.96,0,1.8-0.57,2.52-1.72c0.72-1.15,1.08-2.51,1.08-4.09c0-1.22-0.28-2.17-0.83-2.88
		c-0.55-0.7-1.31-1.05-2.27-1.05c-1.16,0-2.06,0.42-2.7,1.25c-0.64,0.83-1.09,1.83-1.35,2.99c-0.25,1.16-0.53,3.03-0.81,5.62
		c-0.29,2.59-0.77,4.88-1.44,6.88c-0.67,2-1.93,3.96-3.78,5.89c1.2-0.08,2.25-0.01,3.13,0.21c0.88,0.23,2.15,0.65,3.8,1.28
		c1.65,0.63,3.07,0.94,4.25,0.94c2.32,0,4.53-1.19,6.64-3.56V49.16z"/>
	<path d="M60.12,49.16c-1.87,1.77-3.43,3.07-4.69,3.91c-1.26,0.84-2.39,1.26-3.39,1.26c-1.12,0-1.98-0.45-2.58-1.34
		s-0.9-2.1-0.9-3.63c-1.56,1.71-2.95,2.97-4.18,3.79s-2.43,1.22-3.61,1.22c-1.07,0-1.94-0.45-2.59-1.34
		c-0.65-0.89-0.98-2.1-0.98-3.63c0-2.94,0.99-7.09,2.97-12.43l5.67-1.13c-2.33,6.78-3.5,11.13-3.5,13.05c0,1.36,0.51,2.04,1.53,2.04
		c0.74,0,1.65-0.6,2.74-1.79c1.09-1.2,1.77-2.24,2.04-3.13l2.78-9.04l5.77-1.17c-1.33,4.26-2.25,7.25-2.74,8.97
		c-0.5,1.73-0.74,2.93-0.74,3.63c0,1.33,0.45,2,1.36,2c0.74,0,1.83-0.67,3.27-2.01l1.78-1.68V49.16z"/>
	<path d="M91.35,49.16c-1.77,1.73-3.28,3.02-4.54,3.88c-1.26,0.86-2.48,1.29-3.67,1.29c-0.93,0-1.67-0.32-2.22-0.97
		c-0.54-0.64-0.82-1.51-0.82-2.6c0-1.53,0.38-3.47,1.15-5.81c0.76-2.35,1.15-3.78,1.15-4.29c0-0.45-0.23-0.68-0.7-0.68
		c-0.14,0-0.31,0.05-0.51,0.15c-0.21,0.1-0.45,0.24-0.72,0.42c-0.27,0.2-0.56,0.44-0.87,0.72c-0.31,0.28-0.64,0.61-0.98,0.98
		c-0.37,0.37-0.74,0.77-1.1,1.21c-0.62,0.74-0.99,1.35-1.1,1.85l-0.71,3.03l-1.28,5.01l-5.38,0.97l2.06-8.74
		c0.16-0.64,0.34-1.57,0.55-2.8c0.21-1.23,0.32-1.97,0.32-2.21c0-0.48-0.16-0.72-0.49-0.72c-0.1,0-0.24,0.05-0.42,0.15
		c-0.21,0.1-0.45,0.25-0.72,0.45c-0.31,0.23-0.64,0.5-1,0.81c-0.38,0.34-0.79,0.73-1.23,1.17c-0.47,0.47-0.95,0.98-1.44,1.55
		c-0.68,0.76-1.1,1.65-1.27,2.67c-0.23,1.22-0.38,2.31-0.47,3.27c-0.1,0.96-0.16,2.04-0.17,3.22l-4.71,1.12
		c-0.11-1.63-0.17-2.98-0.17-4.07c0-2.59,0.27-4.84,0.81-6.76c0.54-1.92,1.41-4.16,2.63-6.72l5.13-1c-0.92,2.31-1.63,4.53-2.14,6.68
		c3.8-4.43,6.72-6.64,8.74-6.64c0.74,0,1.33,0.3,1.79,0.9s0.69,1.39,0.69,2.37c0,0.45-0.07,1.29-0.21,2.5
		c2.39-2.39,4.11-3.95,5.15-4.68c1.04-0.73,2-1.09,2.88-1.09c0.78,0,1.41,0.31,1.91,0.93c0.5,0.62,0.74,1.41,0.74,2.38
		c0,1.51-0.42,3.46-1.25,5.84c-0.83,2.38-1.25,3.95-1.25,4.71c0,0.79,0.29,1.19,0.87,1.19c0.37,0,0.88-0.24,1.54-0.73
		c0.66-0.49,1.8-1.61,3.44-3.36V49.16z"/>
	<path d="M107.22,49.16c-1.81,1.78-3.47,3.09-4.98,3.92c-1.51,0.83-3.08,1.25-4.72,1.25c-1.84,0-3.36-0.6-4.55-1.79
		c-1.2-1.2-1.79-2.71-1.79-4.55c0-3.01,1.1-5.8,3.3-8.35c2.2-2.55,4.58-3.83,7.14-3.83c1.26,0,2.28,0.35,3.08,1.05
		c0.79,0.7,1.19,1.61,1.19,2.73c0,0.4-0.07,0.69-0.22,0.89c-0.15,0.2-0.43,0.4-0.84,0.59l-2.46,1.17c-0.3,0.14-0.52,0.21-0.66,0.21
		c-0.2,0-0.3-0.14-0.3-0.42c0-0.11,0.04-0.48,0.13-1.11c0.08-0.63,0.13-1.01,0.13-1.16c0-0.62-0.13-1.12-0.39-1.51
		s-0.61-0.57-1.05-0.57c-1.03,0-1.98,0.76-2.83,2.29c-0.86,1.53-1.28,3.27-1.28,5.22c0,1.68,0.4,3.03,1.21,4.03
		c0.81,1,1.88,1.51,3.22,1.51c1.15,0,2.22-0.33,3.24-0.99c1.01-0.66,2.16-1.67,3.45-3.02V49.16z"/>
	<path d="M126.27,49.16c-0.72,0.64-1.42,1.08-2.1,1.35c-0.68,0.26-1.22,0.39-1.61,0.39c-1.02,0-2.03-0.4-3.03-1.19
		c-2.04,3.08-4.37,4.62-7,4.62c-1.64,0-2.97-0.62-3.99-1.85c-1.02-1.23-1.53-2.86-1.53-4.9c0-3.22,1.15-5.99,3.44-8.31
		c2.29-2.31,5.03-3.47,8.21-3.47c1.2,0,2.08,0.13,2.64,0.39c0.56,0.26,0.9,0.57,1.03,0.92s0.19,0.8,0.19,1.34
		c0,2.65-0.72,5.89-2.16,9.74c0.72,0.67,1.48,1,2.27,1c0.95,0,2.16-0.83,3.65-2.48V49.16z M119.27,37.3
		c-0.21-0.08-0.52-0.13-0.91-0.13c-1.84,0-3.28,0.96-4.32,2.89c-1.04,1.92-1.56,4.17-1.56,6.75c0,1.43,0.23,2.54,0.68,3.33
		s1.08,1.19,1.89,1.19c1,0,2.09-0.93,3.27-2.78c-1.33-1.67-1.99-3.47-1.99-5.39C116.32,40.9,117.31,38.94,119.27,37.3z"/>
	<path d="M136.69,49.16c-3.31,3.48-5.79,5.22-7.43,5.22c-0.91,0-1.67-0.46-2.29-1.39c-0.62-0.93-0.93-2.09-0.93-3.49
		c0-3.01,1.02-7.18,3.06-12.52l5.39-1.12h0.25l-2.12,6.64c-0.88,2.74-1.32,4.7-1.32,5.88c0,0.47,0.1,0.84,0.31,1.13
		s0.46,0.44,0.77,0.44c0.55,0,1.11-0.2,1.67-0.61c0.56-0.4,1.44-1.28,2.64-2.62V49.16z M136.27,27.56c0,3.4-1.25,5.09-3.75,5.09
		c-1.22,0-2.26-0.37-3.12-1.1c0.82-1.24,1.46-2.64,1.91-4.2c1.12,0.69,2.02,1.04,2.69,1.04C134.76,28.39,135.52,28.12,136.27,27.56z
		"/>
	<path d="M157.53,49.16c-3.27,3.45-6.07,5.18-8.4,5.18c-0.95,0-1.71-0.33-2.29-1c-0.58-0.67-0.87-1.56-0.87-2.67
		c0-1.51,0.62-3.83,1.87-6.94c0.66-1.67,1-2.73,1-3.18c0-0.45-0.18-0.68-0.53-0.68c-0.2,0-0.46,0.1-0.79,0.3
		c-0.3,0.2-0.64,0.47-1.04,0.83c-0.35,0.33-0.75,0.72-1.19,1.19c-0.38,0.4-0.79,0.85-1.23,1.36l-1.19,1.38
		c-0.52,0.64-0.85,1.31-0.98,2.02c-0.21,1.2-0.35,2.3-0.42,3.31c-0.04,0.75-0.06,1.76-0.06,3.03l-4.69,1.1
		c-0.16-1.91-0.23-3.33-0.23-4.26c0-2.28,0.26-4.43,0.79-6.47c0.53-2.04,1.38-4.33,2.56-6.87l5.18-1c-1.09,2.93-1.8,5.23-2.14,6.92
		c2.32-2.59,4.16-4.38,5.52-5.38c1.36-1,2.57-1.5,3.63-1.5c0.72,0,1.32,0.27,1.8,0.82c0.48,0.54,0.72,1.23,0.72,2.04
		c0,1.36-0.61,3.59-1.82,6.7c-0.83,2.14-1.25,3.52-1.25,4.16c0,0.85,0.35,1.28,1.04,1.28c1.04,0,2.71-1.36,5.02-4.09V49.16z"/>
	<path class="st0" d="M190.54,27.44c0,0.55-0.91,1.91-2.74,4.07h-0.38c-0.28-0.11-0.46-0.53-0.53-1.25
		c-0.16-1.46-0.66-2.65-1.51-3.58c-0.85-0.93-1.87-1.39-3.06-1.39c-1.12,0-2.08,0.41-2.88,1.22c-0.81,0.81-1.21,1.78-1.21,2.91
		c0,0.82,0.26,1.7,0.77,2.64c0.51,0.94,1.84,2.43,3.98,4.47c2.14,2.04,3.51,3.66,4.12,4.87c0.61,1.21,0.91,2.36,0.91,3.45
		c0,2.52-1.09,4.74-3.28,6.65c-2.19,1.92-4.74,2.88-7.67,2.88c-2.42,0-4.41-0.56-5.98-1.69c-1.57-1.12-2.36-2.04-2.36-2.75
		c0-0.4,0.43-1.32,1.29-2.76c0.86-1.44,1.36-2.16,1.48-2.16c0.45,0,0.77,0.13,0.97,0.39c0.19,0.26,0.32,0.75,0.39,1.45
		c0.21,2.21,0.75,3.73,1.6,4.56c0.86,0.83,1.97,1.25,3.34,1.25c1.5,0,2.81-0.52,3.92-1.56s1.68-2.24,1.68-3.61
		c0-0.71-0.22-1.46-0.65-2.26c-0.43-0.8-1.66-2.16-3.67-4.08c-2.01-1.92-3.33-3.54-3.95-4.87c-0.62-1.33-0.93-2.62-0.93-3.88
		c0-2.19,0.83-4.21,2.48-6.05c1.66-1.84,3.85-2.76,6.6-2.76c2.08,0,3.81,0.48,5.19,1.43C189.85,26.01,190.54,26.8,190.54,27.44z"/>
	<path class="st0" d="M205.05,49.16c-1.78,1.77-3.32,3.07-4.62,3.91c-1.3,0.84-2.54,1.26-3.71,1.26c-1.22,0-2.2-0.51-2.96-1.54
		s-1.13-2.37-1.13-4.04c0-1.47,0.36-3.41,1.09-5.83l0.9-3.21l-1.63,0.08l0.68-3.33l2.02-0.08l1.99-6.62l5.67-1.16l-2.19,7.38l3-0.17
		l-0.7,3.27l-3.29,0.25l-1.41,4.75c-0.49,1.65-0.74,2.97-0.74,3.94c0,0.67,0.17,1.21,0.5,1.62c0.33,0.42,0.76,0.63,1.29,0.63
		c0.72,0,1.44-0.23,2.15-0.69c0.71-0.46,1.75-1.42,3.12-2.88V49.16z"/>
	<path class="st0" d="M224.08,49.16c-0.72,0.64-1.42,1.08-2.1,1.35c-0.68,0.26-1.22,0.39-1.61,0.39c-1.02,0-2.03-0.4-3.03-1.19
		c-2.04,3.08-4.37,4.62-7,4.62c-1.64,0-2.97-0.62-3.99-1.85c-1.02-1.23-1.53-2.86-1.53-4.9c0-3.22,1.15-5.99,3.44-8.31
		c2.29-2.31,5.03-3.47,8.21-3.47c1.2,0,2.08,0.13,2.64,0.39c0.56,0.26,0.9,0.57,1.03,0.92c0.13,0.35,0.19,0.8,0.19,1.34
		c0,2.65-0.72,5.89-2.16,9.74c0.72,0.67,1.48,1,2.27,1c0.95,0,2.16-0.83,3.65-2.48V49.16z M217.08,37.3
		c-0.21-0.08-0.52-0.13-0.91-0.13c-1.84,0-3.28,0.96-4.32,2.89c-1.04,1.92-1.56,4.17-1.56,6.75c0,1.43,0.23,2.54,0.68,3.33
		c0.45,0.79,1.08,1.19,1.89,1.19c1,0,2.09-0.93,3.27-2.78c-1.33-1.67-1.99-3.47-1.99-5.39C214.13,40.9,215.11,38.94,217.08,37.3z"/>
	<path class="st0" d="M239.93,49.16c-3.55,3.48-6.29,5.22-8.21,5.22c-0.86,0-1.59-0.36-2.19-1.09s-0.89-1.63-0.89-2.71
		c0-1.99,1.07-4.67,3.2-8.02c-1.05,0.54-2.19,0.91-3.44,1.12c-0.92,1.7-2.36,3.52-4.33,5.47h-0.49v-1.91
		c1.1-1.15,2.1-2.38,2.99-3.69c-1.22-0.54-1.82-1.34-1.82-2.4c0-1.09,0.37-2.25,1.11-3.49c0.74-1.24,1.76-1.86,3.07-1.86
		c1.1,0,1.65,0.57,1.65,1.7c0,0.89-0.32,2.16-0.95,3.82c2.35-0.25,4.4-2.05,6.15-5.39l1.93-0.08l-1.97,5.43
		c-0.82,2.29-1.35,3.85-1.59,4.68s-0.36,1.56-0.36,2.2c0,0.59,0.14,1.07,0.41,1.42c0.28,0.35,0.65,0.53,1.11,0.53
		c0.51,0,1-0.17,1.46-0.52s1.51-1.3,3.14-2.88V49.16z"/>
	<path class="st0" d="M255.8,49.16c-1.8,1.77-3.41,3.07-4.84,3.91s-3.01,1.26-4.73,1.26c-1.92,0-3.48-0.62-4.66-1.85
		c-1.18-1.23-1.77-2.85-1.77-4.86c0-3,1.04-5.71,3.12-8.14c2.08-2.43,4.38-3.64,6.92-3.64c1.32,0,2.37,0.34,3.16,1.02
		c0.79,0.68,1.19,1.57,1.19,2.67c0,2.93-3.11,5.3-9.33,7.13c0.57,2.76,2.04,4.14,4.43,4.14c0.93,0,1.82-0.25,2.67-0.75
		s2.13-1.62,3.84-3.34V49.16z M244.68,45.24c3.62-1.02,5.43-2.9,5.43-5.64c0-1.36-0.5-2.04-1.49-2.04c-0.93,0-1.82,0.71-2.67,2.13
		C245.11,41.11,244.68,42.96,244.68,45.24z"/>
</g>
</svg>
